<svg width="24" height="24" viewBox="0 0 24 24" fill="none" xmlns="http://www.w3.org/2000/svg">
<path d="M8.9444 14.9964C8.4836 16.4234 8.2509 17.6726 8.2509 18.7497C8.2509 21.1483 9.19 22.9971 10.7509 22.9971C11.5977 22.9971 11.8598 22.4928 12.1877 21.2502C12.1705 21.3152 12.3506 20.6163 12.4032 20.429C12.5042 20.0703 12.68 19.4596 12.9303 18.598C12.937 18.575 12.9468 18.5532 12.9597 18.5331L15.8264 14.0475C16.5045 12.9865 17.5049 12.171 18.6808 11.7208L19.938 11.2394C20.7314 10.9357 21.192 10.106 21.0303 9.272L20.3442 5.7333C20.177 4.8713 19.5237 4.1853 18.6709 3.9763L10.4214 1.9544C7.8902 1.334 5.3318 2.8689 4.6879 5.3943L3.114 11.5669C2.7388 13.0386 3.6277 14.5359 5.0993 14.9111C5.3214 14.9677 5.5496 14.9964 5.7788 14.9964H8.9444Z" fill="#FF0000"/>
</svg>
